<svg xmlns="http://www.w3.org/2000/svg" viewBox="0 0 560 440" fill="none" role="img" aria-label="AI analytics">
  <defs>
    <linearGradient id="a-g1" x1="0%" y1="0%" x2="100%" y2="100%"><stop offset="0%" stop-color="#8B5CF6"/><stop offset="100%" stop-color="#7C3AED"/></linearGradient>
    <linearGradient id="a-g2" x1="0%" y1="0%" x2="0%" y2="100%"><stop offset="0%" stop-color="#F5F3FF"/><stop offset="100%" stop-color="#EDE9FE"/></linearGradient>
    <linearGradient id="a-g3" x1="0%" y1="0%" x2="100%" y2="100%"><stop offset="0%" stop-color="#fff" stop-opacity=".95"/><stop offset="100%" stop-color="#F5F3FF" stop-opacity=".9"/></linearGradient>
    <radialGradient id="a-glow" cx="50%" cy="50%" r="50%"><stop offset="0%" stop-color="#A78BFA" stop-opacity=".35"/><stop offset="100%" stop-color="#7C3AED" stop-opacity="0"/></radialGradient>
    <filter id="a-sh"><feDropShadow dx="0" dy="8" stdDeviation="12" flood-color="#7C3AED" flood-opacity=".12"/></filter>
  </defs>
  <rect x="60" y="60" width="440" height="320" rx="24" fill="url(#a-g2)" opacity=".6"/>
  <circle cx="280" cy="200" r="100" fill="url(#a-glow)"/>
  <g data-layer="main" transform="translate(280 175)" filter="url(#a-sh)">
    <path d="M0-55C-35-55-50-25-40 0-55 15-45 50-15 55-5 65 5 65 15 55 45 50 55 15 40 0 50-25 35-55 0-55Z" fill="#fff" stroke="#EDE9FE" stroke-width="1.5"/>
    <circle r="18" fill="url(#a-g1)" opacity=".35"/>
  </g>
  <rect x="50" y="90" width="120" height="70" rx="12" fill="url(#a-g3)" stroke="#EDE9FE"/>
  <polyline data-layer="graph-lines" points="62,145 78,138 94,142 110,128 126,132 142,120" stroke="#8B5CF6" stroke-width="2" fill="none" stroke-linecap="round"/>
  <g data-layer="rings" transform="translate(100 250)"><circle r="36" stroke="#EDE9FE" stroke-width="6"/><circle r="36" stroke="url(#a-g1)" stroke-width="6" stroke-dasharray="180 226" stroke-linecap="round" transform="rotate(-90)"/></g>
  <g data-layer="particles" fill="#A78BFA"><circle cx="480" cy="60" r="2" opacity=".4"/><circle cx="50" cy="350" r="3" opacity=".3"/></g>
</svg>
