<svg xmlns="http://www.w3.org/2000/svg" viewBox="0 0 560 440" fill="none" role="img" aria-label="Cloud monitoring">
  <defs>
    <linearGradient id="c-g1" x1="0%" y1="0%" x2="100%" y2="100%"><stop offset="0%" stop-color="#8B5CF6"/><stop offset="100%" stop-color="#7C3AED"/></linearGradient>
    <linearGradient id="c-g3" x1="0%" y1="0%" x2="100%" y2="100%"><stop offset="0%" stop-color="#fff" stop-opacity=".95"/><stop offset="100%" stop-color="#F5F3FF" stop-opacity=".9"/></linearGradient>
    <radialGradient id="c-glow" cx="50%" cy="50%" r="50%"><stop offset="0%" stop-color="#A78BFA" stop-opacity=".4"/><stop offset="100%" stop-color="#7C3AED" stop-opacity="0"/></radialGradient>
    <filter id="c-sh"><feDropShadow dx="0" dy="4" stdDeviation="6" flood-color="#6D28D9" flood-opacity=".1"/></filter>
  </defs>
  <ellipse cx="280" cy="400" rx="190" ry="24" fill="url(#c-glow)"/>
  <g data-layer="main" transform="translate(280 120)">
    <path d="M-60 30C-80 30-88 10-68 10-72-10-44-14-32 2-20-14 12-8 8 14 28 10 36 42 4 42-52 42-72 42-72 30-60 30Z" fill="#fff" stroke="#EDE9FE" stroke-width="1.5" filter="url(#c-sh)"/>
    <circle r="14" fill="url(#c-g1)" opacity=".2"/>
  </g>
  <g data-layer="flow-lines" stroke="#A78BFA" stroke-width="1.5" opacity=".5" stroke-dasharray="5 4"><path d="M280 165 120 260"/><path d="M280 165 280 280"/><path d="M280 165 440 260"/></g>
  <g data-layer="factories"><path d="M70 320 70 280 100 260 130 280 130 320Z" fill="#fff" stroke="#EDE9FE" transform="translate(30 0)"/><path d="M250 320 250 280 280 260 310 280 310 320Z" fill="#fff" stroke="#EDE9FE"/><path d="M430 320 430 280 460 260 490 280 490 320Z" fill="#fff" stroke="#EDE9FE"/></g>
  <rect x="40" y="60" width="130" height="70" rx="12" fill="url(#c-g3)" stroke="#EDE9FE"/>
  <rect x="390" y="70" width="130" height="80" rx="12" fill="url(#c-g3)" stroke="#EDE9FE"/>
</svg>
